<svg version="1.1" id="Capa_1" xmlns="http://www.w3.org/2000/svg" xmlns:xlink="http://www.w3.org/1999/xlink" x="0px" y="0px" viewBox="0 0 365.4 365.4" style="enable-background:new 0 0 365.4 365.4;" xml:space="preserve">
<style type="text/css">
	.st0{fill:url(#SVGID_1_);}
</style>
<g>
<linearGradient id="SVGID_1_" gradientUnits="userSpaceOnUse" x1="73.09" y1="182.7245" x2="292.358" y2="182.7245">
<stop offset="0" style="stop-color:#1245C6" id="id_102"></stop>
<stop offset="1" style="stop-color:#9909B7" id="id_103"></stop>
</linearGradient>
<path class="st0" d="M281.5,10.9C274.3,3.6,265.7,0,255.8,0H109.6c-9.9,0-18.5,3.6-25.7,10.9c-7.2,7.2-10.8,15.8-10.8,25.7v292.4
		c0,9.9,3.6,18.5,10.8,25.7c7.2,7.2,15.8,10.9,25.7,10.9h146.2c9.9,0,18.5-3.6,25.7-10.9c7.2-7.2,10.9-15.8,10.9-25.7V36.5
		C292.4,26.6,288.7,18.1,281.5,10.9z M159.9,36.5h45.7c3,0,4.6,1.5,4.6,4.6c0,3-1.5,4.6-4.6,4.6h-45.7c-3,0-4.6-1.5-4.6-4.6
		C155.3,38.1,156.8,36.5,159.9,36.5z M198.9,345c-4.5,4.5-9.9,6.7-16.1,6.7c-6.3,0-11.7-2.2-16.1-6.7c-4.5-4.5-6.7-9.9-6.7-16.1
		c0-6.3,2.2-11.7,6.7-16.1c4.5-4.5,9.9-6.7,16.1-6.7c6.3,0,11.7,2.2,16.1,6.7c4.5,4.5,6.7,9.9,6.7,16.1S203.3,340.6,198.9,345z
		 M265,283.2c0,2.5-0.9,4.6-2.7,6.4c-1.8,1.8-3.9,2.7-6.4,2.7H109.6c-2.5,0-4.6-0.9-6.4-2.7s-2.7-4-2.7-6.4v-201
		c0-2.5,0.9-4.6,2.7-6.4c1.8-1.8,3.9-2.7,6.4-2.7h146.2c2.5,0,4.6,0.9,6.4,2.7c1.8,1.8,2.7,3.9,2.7,6.4L265,283.2L265,283.2
		L265,283.2z" id="id_101" fill="#000000"></path>
</g>
</svg>